<?xml version="1.0" encoding="UTF-8" standalone="no"?>
<!DOCTYPE svg PUBLIC "-//W3C//DTD SVG 1.1//EN" "http://www.w3.org/Graphics/SVG/1.1/DTD/svg11.dtd">
<svg width="100%" height="100%" viewBox="0 0 300 300" version="1.1" xmlns="http://www.w3.org/2000/svg" xmlns:xlink="http://www.w3.org/1999/xlink" xml:space="preserve" xmlns:serif="http://www.serif.com/" style="fill-rule:evenodd;clip-rule:evenodd;stroke-linejoin:round;stroke-miterlimit:2;">
    <rect x="0" y="0" width="300" height="300" style="fill:rgb(46,47,56);"/>
    <g id="flow.svg" transform="matrix(0.615401,0,0,0.615401,150,150)">
        <g transform="matrix(1,0,0,1,-205,-68)">
            <g transform="matrix(1.97511,0,0,1.97511,-1046.09,-394.766)">
                <g transform="matrix(89.9333,0,0,89.9333,532.987,261.818)">
                    <path d="M0.347,-0.265L0.147,-0.265C0.142,-0.265 0.138,-0.261 0.138,-0.256L0.138,-0.028C0.138,-0.026 0.138,-0.025 0.137,-0.024C0.136,-0.023 0.135,-0.023 0.133,-0.023L0.056,-0.023C0.055,-0.023 0.054,-0.023 0.053,-0.024C0.052,-0.025 0.052,-0.026 0.052,-0.028L0.052,-0.303C0.052,-0.31 0.05,-0.314 0.046,-0.317C0.044,-0.319 0.04,-0.32 0.036,-0.32C0.031,-0.319 0.027,-0.317 0.025,-0.314C0.022,-0.312 0.021,-0.308 0.021,-0.303L0.021,-0.028C0.021,-0.016 0.024,-0.007 0.03,-0.001C0.036,0.006 0.044,0.009 0.056,0.009L0.133,0.009C0.145,0.009 0.154,0.006 0.16,-0.001C0.167,-0.007 0.17,-0.016 0.17,-0.028L0.17,-0.233L0.345,-0.233C0.355,-0.233 0.363,-0.236 0.37,-0.242C0.377,-0.249 0.381,-0.257 0.381,-0.267L0.381,-0.338C0.381,-0.349 0.377,-0.357 0.37,-0.364C0.363,-0.371 0.355,-0.374 0.345,-0.374L0.056,-0.374C0.055,-0.374 0.054,-0.374 0.053,-0.375C0.052,-0.376 0.052,-0.377 0.052,-0.379L0.052,-0.583C0.052,-0.584 0.052,-0.586 0.053,-0.587L0.374,-0.587L0.374,-0.586C0.375,-0.585 0.375,-0.584 0.375,-0.583L0.375,-0.512C0.375,-0.512 0.374,-0.51 0.373,-0.509C0.372,-0.509 0.372,-0.508 0.371,-0.508C0.371,-0.507 0.371,-0.507 0.37,-0.507L0.147,-0.507C0.142,-0.507 0.138,-0.503 0.138,-0.498L0.138,-0.412C0.138,-0.407 0.14,-0.403 0.142,-0.4C0.145,-0.397 0.149,-0.395 0.154,-0.395C0.159,-0.395 0.163,-0.397 0.166,-0.4C0.168,-0.403 0.17,-0.407 0.17,-0.412L0.17,-0.476L0.37,-0.476C0.375,-0.476 0.379,-0.476 0.384,-0.478C0.39,-0.479 0.394,-0.483 0.397,-0.488C0.399,-0.489 0.401,-0.493 0.403,-0.497C0.405,-0.503 0.406,-0.508 0.406,-0.512L0.406,-0.583C0.406,-0.589 0.405,-0.595 0.402,-0.599C0.401,-0.602 0.4,-0.604 0.398,-0.607C0.398,-0.609 0.397,-0.611 0.395,-0.612C0.393,-0.613 0.39,-0.615 0.385,-0.617C0.38,-0.619 0.375,-0.62 0.37,-0.62L0.056,-0.62C0.051,-0.62 0.047,-0.619 0.042,-0.617C0.039,-0.615 0.036,-0.614 0.033,-0.612C0.032,-0.612 0.031,-0.611 0.031,-0.61C0.024,-0.604 0.021,-0.595 0.021,-0.583L0.021,-0.379C0.021,-0.367 0.024,-0.358 0.03,-0.352C0.036,-0.346 0.044,-0.343 0.056,-0.343L0.345,-0.343C0.347,-0.343 0.347,-0.341 0.347,-0.338L0.347,-0.265Z" style="fill:url(#_Linear1);"/>
                </g>
                <g transform="matrix(89.9333,0,0,89.9333,571.389,261.818)">
                    <path d="M0.208,-0.103L0.35,-0.103C0.351,-0.103 0.351,-0.103 0.352,-0.102L0.352,-0.028C0.352,-0.026 0.352,-0.025 0.351,-0.024C0.35,-0.023 0.349,-0.023 0.348,-0.023L0.161,-0.023L0.161,-0.584C0.161,-0.595 0.158,-0.603 0.151,-0.61C0.144,-0.617 0.135,-0.62 0.124,-0.62L0.048,-0.62C0.036,-0.62 0.027,-0.616 0.021,-0.61C0.015,-0.603 0.012,-0.594 0.012,-0.584L0.012,-0.028C0.012,-0.016 0.015,-0.007 0.021,-0.001C0.027,0.006 0.036,0.009 0.048,0.009L0.094,0.009C0.099,0.009 0.103,0.007 0.106,0.005C0.109,0.002 0.111,-0.002 0.111,-0.007C0.111,-0.012 0.109,-0.016 0.106,-0.019C0.103,-0.021 0.099,-0.023 0.094,-0.023L0.048,-0.023C0.046,-0.023 0.045,-0.023 0.044,-0.024C0.043,-0.025 0.043,-0.026 0.043,-0.028L0.043,-0.584C0.043,-0.585 0.043,-0.586 0.044,-0.586L0.045,-0.586C0.046,-0.587 0.047,-0.587 0.048,-0.587L0.124,-0.587C0.125,-0.587 0.126,-0.587 0.127,-0.586L0.129,-0.586L0.129,0C0.129,0.005 0.133,0.009 0.138,0.009L0.348,0.009C0.359,0.009 0.368,0.005 0.374,-0.001C0.379,-0.007 0.382,-0.016 0.382,-0.028L0.382,-0.1C0.382,-0.112 0.379,-0.12 0.373,-0.126C0.368,-0.132 0.359,-0.135 0.348,-0.135L0.208,-0.135C0.203,-0.135 0.199,-0.133 0.196,-0.131C0.194,-0.128 0.192,-0.124 0.192,-0.119C0.192,-0.114 0.194,-0.11 0.196,-0.107C0.199,-0.105 0.203,-0.103 0.208,-0.103Z" style="fill:url(#_Linear2);"/>
                </g>
                <g transform="matrix(89.9333,0,0,89.9333,662.581,261.818)">
                    <path d="M0.385,-0.224L0.44,-0.026C0.442,-0.016 0.445,-0.008 0.451,-0.002C0.457,0.005 0.467,0.009 0.479,0.009L0.573,0.009C0.588,0.009 0.598,0.004 0.604,-0.005C0.608,-0.011 0.612,-0.02 0.616,-0.031L0.616,-0.032L0.77,-0.577C0.773,-0.589 0.772,-0.599 0.766,-0.607C0.76,-0.616 0.751,-0.62 0.738,-0.62L0.657,-0.62C0.644,-0.62 0.635,-0.616 0.63,-0.609C0.624,-0.603 0.621,-0.595 0.619,-0.585L0.519,-0.219L0.456,-0.46C0.456,-0.461 0.455,-0.462 0.455,-0.462C0.451,-0.471 0.444,-0.475 0.437,-0.475C0.428,-0.475 0.422,-0.471 0.419,-0.46L0.297,-0.035L0.294,-0.024C0.293,-0.024 0.291,-0.023 0.289,-0.023L0.191,-0.023L0.19,-0.024L0.186,-0.036L0.03,-0.585C0.03,-0.586 0.03,-0.586 0.029,-0.587L0.112,-0.587C0.114,-0.587 0.115,-0.587 0.116,-0.586C0.117,-0.585 0.118,-0.584 0.118,-0.582L0.232,-0.153L0.239,-0.129C0.24,-0.125 0.244,-0.123 0.248,-0.123C0.252,-0.123 0.256,-0.125 0.257,-0.129L0.264,-0.153L0.344,-0.443C0.345,-0.444 0.346,-0.445 0.347,-0.445L0.393,-0.445C0.402,-0.448 0.406,-0.454 0.406,-0.462C0.406,-0.467 0.404,-0.471 0.401,-0.473C0.399,-0.476 0.395,-0.477 0.39,-0.477L0.347,-0.477C0.339,-0.477 0.332,-0.475 0.327,-0.471C0.321,-0.467 0.317,-0.461 0.315,-0.452L0.248,-0.217L0.15,-0.59L0.15,-0.591C0.143,-0.611 0.13,-0.62 0.112,-0.62L0.031,-0.62C0.018,-0.62 0.009,-0.616 0.003,-0.608C-0.004,-0.599 -0.005,-0.589 -0.001,-0.576L0.155,-0.03C0.157,-0.02 0.16,-0.011 0.164,-0.005C0.169,0.004 0.178,0.009 0.194,0.009L0.289,0.009C0.304,0.009 0.313,0.004 0.318,-0.003C0.322,-0.009 0.326,-0.017 0.329,-0.027L0.329,-0.028C0.347,-0.093 0.366,-0.159 0.385,-0.224ZM0.74,-0.587L0.657,-0.587C0.655,-0.587 0.653,-0.587 0.652,-0.586C0.651,-0.585 0.65,-0.583 0.65,-0.582L0.528,-0.128C0.527,-0.124 0.523,-0.121 0.519,-0.121C0.515,-0.121 0.511,-0.124 0.51,-0.128L0.437,-0.408C0.422,-0.353 0.407,-0.3 0.392,-0.247C0.392,-0.247 0.392,-0.248 0.393,-0.248C0.396,-0.25 0.4,-0.25 0.403,-0.249C0.407,-0.248 0.411,-0.245 0.413,-0.239C0.414,-0.238 0.414,-0.238 0.414,-0.237L0.47,-0.034C0.471,-0.031 0.472,-0.027 0.474,-0.024C0.474,-0.023 0.475,-0.024 0.475,-0.023L0.573,-0.023C0.575,-0.023 0.576,-0.023 0.577,-0.024L0.579,-0.024C0.581,-0.028 0.582,-0.033 0.584,-0.038L0.74,-0.586L0.74,-0.587Z" style="fill:url(#_Linear3);"/>
                </g>
                <g transform="matrix(0.398777,0,0,0.398777,-24.0077,102.122)">
                    <path d="M1610.38,388.105C1609.7,387.686 1608.83,387.704 1608.16,388.152L1605.44,389.975C1604.86,390.363 1604.52,391.018 1604.53,391.715C1604.54,392.412 1604.9,393.057 1605.49,393.429C1609.04,395.669 1612.83,397.633 1616.86,399.321C1625.9,403.109 1635.53,405.006 1645.73,405.006C1647.25,405.006 1648.24,404.462 1648.84,403.725C1649.31,403.159 1649.6,402.423 1649.6,401.48C1649.6,400.537 1649.31,399.801 1648.84,399.235C1648.24,398.498 1647.25,397.954 1645.73,397.954C1636.4,397.954 1627.68,396.245 1619.59,392.818C1616.36,391.45 1613.29,389.879 1610.38,388.105ZM1605.5,269.497C1604.91,269.87 1604.55,270.514 1604.54,271.21C1604.54,271.907 1604.88,272.56 1605.46,272.947L1608.34,274.877C1609,275.323 1609.87,275.343 1610.55,274.927C1613.41,273.196 1616.42,271.66 1619.59,270.319C1627.68,266.891 1636.4,265.182 1645.73,265.182C1655.07,265.182 1663.74,266.89 1671.76,270.316C1679.78,273.741 1686.74,278.44 1692.64,284.416C1698.55,290.397 1703.22,297.438 1706.64,305.534C1710.07,313.629 1711.78,322.346 1711.78,331.681C1711.78,345.064 1709.17,356.022 1703.86,364.532C1698.59,372.976 1692.04,379.161 1684.17,383.058C1676.3,386.961 1667.77,388.653 1658.59,388.147C1649.36,387.639 1640.79,385.17 1632.87,380.739C1630.89,379.632 1629,378.405 1627.19,377.057C1626.49,376.536 1625.54,376.512 1624.81,376.998L1622.25,378.717C1621.69,379.087 1621.36,379.7 1621.34,380.364C1621.31,381.029 1621.62,381.662 1622.14,382.065C1626.38,385.298 1631.01,387.968 1636.03,390.074C1643.25,393.1 1650.62,394.805 1658.14,395.193C1665.68,395.582 1673.11,394.611 1680.41,392.279C1687.77,389.932 1694.3,386.138 1700.01,380.897C1705.7,375.675 1710.31,368.979 1713.82,360.795C1717.3,352.675 1719.06,342.972 1719.06,331.681C1719.06,321.321 1717.16,311.657 1713.37,302.689C1709.58,293.721 1704.4,285.914 1697.83,279.265C1691.25,272.61 1683.48,267.384 1674.5,263.592C1665.53,259.803 1655.94,257.905 1645.73,257.905C1635.53,257.905 1625.9,259.802 1616.86,263.59C1612.84,265.275 1609.05,267.244 1605.5,269.497ZM1645.17,379.293L1645.28,379.296L1645.73,379.296L1646.35,379.293C1652.71,379.221 1658.67,378.04 1664.22,375.759C1669.96,373.399 1675.04,370.017 1679.44,365.613C1679.46,365.595 1679.48,365.576 1679.49,365.558C1683.57,361.17 1686.78,356.156 1689.13,350.515C1691.03,345.961 1692.17,341 1692.54,335.631C1692.59,334.847 1692.19,334.101 1691.52,333.707C1690.84,333.313 1689.99,333.341 1689.34,333.778L1685.95,336.048C1685.45,336.382 1685.12,336.916 1685.05,337.511C1684.61,341.113 1683.76,344.56 1682.49,347.854C1680.57,352.826 1677.84,357.092 1674.3,360.647C1670.7,364.093 1666.43,366.883 1661.49,369.033C1656.56,371.176 1651.31,372.245 1645.73,372.245L1645.73,372.253C1645.68,372.247 1645.63,372.245 1645.58,372.245C1645.47,372.245 1645.37,372.259 1645.28,372.287L1645.28,372.245C1643.79,372.245 1642.78,372.684 1642.18,373.233C1641.55,373.815 1641.19,374.575 1641.19,375.545C1641.19,377.171 1642.17,378.656 1644.84,379.247C1644.94,379.272 1645.06,379.287 1645.17,379.293ZM1630.95,285.993C1630.19,286.23 1629.64,286.88 1629.53,287.665C1629.42,288.449 1629.76,289.228 1630.42,289.669L1633.62,291.815C1634.11,292.137 1634.7,292.242 1635.26,292.104C1638.57,291.294 1642.06,290.891 1645.73,290.891C1651.46,290.891 1656.75,291.922 1661.61,293.996C1666.47,296.068 1670.69,298.922 1674.26,302.565C1677.82,306.202 1680.57,310.483 1682.49,315.405C1683.72,318.543 1684.56,321.869 1685.01,325.381C1685.08,325.972 1685.41,326.501 1685.9,326.832L1689.3,329.105C1689.95,329.545 1690.8,329.57 1691.48,329.171C1692.17,328.771 1692.56,328.016 1692.5,327.228C1692.09,322.146 1690.97,317.324 1689.14,312.761C1686.78,306.865 1683.56,301.797 1679.47,297.551C1675.37,293.294 1670.4,289.939 1664.57,287.496C1658.76,285.062 1652.48,283.84 1645.73,283.84C1640.44,283.84 1635.51,284.561 1630.95,285.993Z" style="fill:url(#_Linear4);"/>
                </g>
                <g transform="matrix(1.75646e-17,0.286852,-0.255973,1.56738e-17,815.752,164.956)">
                    <path d="M232.887,693.349C234.681,689.76 238.066,687.538 241.736,687.538C245.407,687.538 248.791,689.76 250.585,693.349C262.548,717.273 283.731,759.641 295.491,783.16C297.251,786.68 297.214,790.982 295.393,794.463C293.573,797.944 290.242,800.083 286.642,800.083L196.83,800.083C193.23,800.083 189.899,797.944 188.079,794.463C186.259,790.982 186.222,786.68 187.982,783.16C199.741,759.641 220.925,717.273 232.887,693.349Z" style="fill:url(#_Linear5);"/>
                </g>
            </g>
        </g>
    </g>
    <defs>
        <linearGradient id="_Linear1" x1="0" y1="0" x2="1" y2="0" gradientUnits="userSpaceOnUse" gradientTransform="matrix(2.19164,-8.74299e-07,8.74299e-07,2.19164,0.021,-0.305995)"><stop offset="0" style="stop-color:rgb(255,145,78);stop-opacity:1"/><stop offset="1" style="stop-color:rgb(255,78,100);stop-opacity:1"/></linearGradient>
        <linearGradient id="_Linear2" x1="0" y1="0" x2="1" y2="0" gradientUnits="userSpaceOnUse" gradientTransform="matrix(2.19164,-8.74299e-07,8.74299e-07,2.19164,-0.406005,-0.305995)"><stop offset="0" style="stop-color:rgb(255,145,78);stop-opacity:1"/><stop offset="1" style="stop-color:rgb(255,78,100);stop-opacity:1"/></linearGradient>
        <linearGradient id="_Linear3" x1="0" y1="0" x2="1" y2="0" gradientUnits="userSpaceOnUse" gradientTransform="matrix(2.19164,-8.74299e-07,8.74299e-07,2.19164,-1.42,-0.305995)"><stop offset="0" style="stop-color:rgb(255,145,78);stop-opacity:1"/><stop offset="1" style="stop-color:rgb(255,78,100);stop-opacity:1"/></linearGradient>
        <linearGradient id="_Linear4" x1="0" y1="0" x2="1" y2="0" gradientUnits="userSpaceOnUse" gradientTransform="matrix(494.265,-0.000197174,0.000197174,494.265,1401.49,331.456)"><stop offset="0" style="stop-color:rgb(255,145,78);stop-opacity:1"/><stop offset="1" style="stop-color:rgb(255,78,100);stop-opacity:1"/></linearGradient>
        <linearGradient id="_Linear5" x1="0" y1="0" x2="1" y2="0" gradientUnits="userSpaceOnUse" gradientTransform="matrix(-0.000274108,-770.008,770.008,-0.000274108,241.737,1097.29)"><stop offset="0" style="stop-color:rgb(255,145,78);stop-opacity:1"/><stop offset="1" style="stop-color:rgb(255,78,100);stop-opacity:1"/></linearGradient>
    </defs>
</svg>
