<?xml version="1.0" encoding="UTF-8" standalone="no"?><!DOCTYPE svg PUBLIC "-//W3C//DTD SVG 1.1//EN" "http://www.w3.org/Graphics/SVG/1.1/DTD/svg11.dtd"><svg width="100%" height="100%" viewBox="0 0 87 88" version="1.1" xmlns="http://www.w3.org/2000/svg" xmlns:xlink="http://www.w3.org/1999/xlink" xml:space="preserve" xmlns:serif="http://www.serif.com/" style="fill-rule:evenodd;clip-rule:evenodd;stroke-linecap:round;stroke-linejoin:round;stroke-miterlimit:1.5;"><path d="M84.88,7.873c0,-3.197 -2.596,-5.793 -5.793,-5.793l-71.174,-0c-3.197,-0 -5.793,2.596 -5.793,5.793l-0,72.254c-0,3.197 2.596,5.793 5.793,5.793l71.174,0c3.197,0 5.793,-2.596 5.793,-5.793l0,-72.254Z" style="fill:none;stroke:#ff8751;stroke-width:3.63px;"/><path d="M63.117,55.563c-0,2.718 -0.724,4.979 -2.173,6.784c-1.448,1.804 -3.397,3.152 -5.848,4.043c-2.45,0.892 -5.146,1.337 -8.087,1.337l-23.126,0l0,-47.454l26.401,-0c2.228,-0 4.155,0.59 5.781,1.771c1.627,1.181 2.874,2.707 3.743,4.578c0.869,1.872 1.304,3.81 1.304,5.815c-0,2.228 -0.58,4.356 -1.738,6.383c-1.159,2.028 -2.852,3.554 -5.08,4.578c2.718,0.803 4.868,2.228 6.45,4.278c1.582,2.05 2.373,4.679 2.373,7.887Zm-11.162,-2.206c-0,-1.025 -0.201,-1.927 -0.602,-2.707c-0.401,-0.779 -0.924,-1.403 -1.57,-1.871c-0.646,-0.468 -1.415,-0.702 -2.306,-0.702l-12.632,0l-0,10.36l12.164,-0c0.936,-0 1.771,-0.223 2.506,-0.669c0.736,-0.445 1.326,-1.047 1.772,-1.804c0.445,-0.758 0.668,-1.627 0.668,-2.607Zm-17.11,-23.727l-0,9.825l10.76,0c0.802,0 1.549,-0.178 2.239,-0.535c0.691,-0.356 1.259,-0.902 1.705,-1.637c0.445,-0.735 0.668,-1.66 0.668,-2.774c0,-1.069 -0.189,-1.96 -0.568,-2.673c-0.379,-0.713 -0.88,-1.259 -1.504,-1.638c-0.624,-0.379 -1.337,-0.568 -2.139,-0.568l-11.161,0Z" style="fill:#fff;fill-rule:nonzero;"/></svg>