<?xml version="1.0" encoding="UTF-8" standalone="no"?><!DOCTYPE svg PUBLIC "-//W3C//DTD SVG 1.1//EN" "http://www.w3.org/Graphics/SVG/1.1/DTD/svg11.dtd"><svg width="100%" height="100%" viewBox="0 0 512 512" version="1.1" xmlns="http://www.w3.org/2000/svg" xmlns:xlink="http://www.w3.org/1999/xlink" xml:space="preserve" xmlns:serif="http://www.serif.com/" style="fill-rule:evenodd;clip-rule:evenodd;stroke-linejoin:round;stroke-miterlimit:2;"><g id="logo_art"><g><g><path id="path50_5_" d="M255.705,491.531l94.221,-289.82l-188.306,-0l94.085,289.82Z" style="fill:#e24329;fill-rule:nonzero;"/><path id="path66_12_" d="M29.648,201.711l-28.692,88.051c-2.596,7.995 0.207,16.821 7.061,21.804l247.688,179.964l-226.057,-289.819Z" style="fill:#fca326;fill-rule:nonzero;"/><path id="path74_5_" d="M29.648,201.711l131.972,-0l-56.797,-174.545c-2.907,-8.93 -15.575,-8.93 -18.587,0l-56.588,174.545Z" style="fill:#e24329;fill-rule:nonzero;"/><path id="path82_12_" d="M481.897,201.711l28.59,88.051c2.596,7.995 -0.208,16.821 -7.061,21.804l-247.721,179.965l226.192,-289.82Z" style="fill:#fca326;fill-rule:nonzero;"/><path id="path86_5_" d="M481.897,201.711l-131.971,-0l56.692,-174.545c2.907,-8.93 15.576,-8.93 18.587,0l56.692,174.545Z" style="fill:#e24329;fill-rule:nonzero;"/><path d="M255.705,491.531l94.221,-289.82l131.971,-0l-226.192,289.82Z" style="fill:#fc6d26;fill-rule:nonzero;"/><path d="M255.705,491.531l-226.057,-289.82l131.972,-0l94.085,289.82Z" style="fill:#fc6d26;fill-rule:nonzero;"/></g></g></g><g id="git.svg"></g></svg>