<?xml version="1.0" encoding="UTF-8" standalone="no"?><!DOCTYPE svg PUBLIC "-//W3C//DTD SVG 1.1//EN" "http://www.w3.org/Graphics/SVG/1.1/DTD/svg11.dtd"><svg width="100%" height="100%" viewBox="0 0 512 512" version="1.1" xmlns="http://www.w3.org/2000/svg" xmlns:xlink="http://www.w3.org/1999/xlink" xml:space="preserve" xmlns:serif="http://www.serif.com/" style="fill-rule:evenodd;clip-rule:evenodd;stroke-linejoin:round;stroke-miterlimit:2;"><clipPath id="_clip1"><polygon id="html.svg" points="25.233,-139.18 486.572,-139.18 486.767,512 25.428,512 25.233,-139.18 "/></clipPath><g clip-path="url(#_clip1)"><path d="M444.723,459.638l-188.902,52.362l-188.427,-52.316l-42.123,-470.888l461.339,-0" style="fill:#e44d26;fill-rule:nonzero;"/><path d="M444.548,27.271l-188.596,0l0.134,444.685l152.644,-42.305" style="fill:#f16529;fill-rule:nonzero;"/><path d="M400.461,85.031l-144.676,-0l0.017,57.76l139.509,-0m-5.195,59.143l-134.296,0l0.063,210.14l118.416,-32.847m-118.462,-119.533l71.185,-0l-6.667,74.921l-64.49,17.393" style="fill:#fff;fill-rule:nonzero;"/><path d="M126.755,259.694l129.221,-0l-0.017,-57.76l-76.444,0l-5.277,-59.143l81.703,-0l-0.017,-57.76l-144.815,-0m26.339,294.242l118.435,32.801l0.185,-0.046l-0.018,-60.066l-0.185,0.046l-64.408,-17.347l-4.12,-46.087l-57.99,-0" style="fill:#fff;fill-rule:nonzero;"/></g><g id="html.svg1" serif:id="html.svg"></g></svg>