<?xml version="1.0" encoding="UTF-8" standalone="no"?><!DOCTYPE svg PUBLIC "-//W3C//DTD SVG 1.1//EN" "http://www.w3.org/Graphics/SVG/1.1/DTD/svg11.dtd"><svg width="100%" height="100%" viewBox="0 0 70 70" version="1.1" xmlns="http://www.w3.org/2000/svg" xmlns:xlink="http://www.w3.org/1999/xlink" xml:space="preserve" xmlns:serif="http://www.serif.com/" style="fill-rule:evenodd;clip-rule:evenodd;stroke-linejoin:round;stroke-miterlimit:2;"><path d="M9.756,63.003l-5.617,-63.003l61.722,0l-5.623,62.993l-25.276,7.007l-25.206,-6.997Z" style="fill:#264de4;fill-rule:nonzero;"/><path d="M55.424,58.982l4.806,-53.831l-25.23,0l0,59.493l20.424,-5.662Z" style="fill:#2965f1;fill-rule:nonzero;"/><path d="M17.016,28.518l0.692,7.727l17.292,0l0,-7.727l-17.984,0Zm-0.689,-7.912l18.673,-0l0,-7.728l-19.376,0l0.703,7.728Zm18.673,27.98l-0.034,0.009l-8.606,-2.324l-0.55,-6.162l-7.756,-0l1.082,12.132l15.828,4.394l0.036,-0.01l0,-8.039Z" style="fill:#ebebeb;fill-rule:nonzero;"/><path d="M34.973,28.518l0,7.727l9.515,0l-0.897,10.021l-8.618,2.326l0,8.04l15.841,-4.391l0.116,-1.305l1.816,-20.343l0.189,-2.075l1.395,-15.64l-19.357,0l0,7.728l10.888,-0l-0.703,7.912l-10.185,0Z" style="fill:#fff;fill-rule:nonzero;"/><g id="css.svg"></g></svg>