<?xml version="1.0" encoding="UTF-8" standalone="no"?><!DOCTYPE svg PUBLIC "-//W3C//DTD SVG 1.1//EN" "http://www.w3.org/Graphics/SVG/1.1/DTD/svg11.dtd"><svg width="100%" height="100%" viewBox="0 0 70 70" version="1.1" xmlns="http://www.w3.org/2000/svg" xmlns:xlink="http://www.w3.org/1999/xlink" xml:space="preserve" xmlns:serif="http://www.serif.com/" style="fill-rule:evenodd;clip-rule:evenodd;stroke-linejoin:round;stroke-miterlimit:2;"><rect x="0" y="0" width="70" height="70" style="fill:#f7df1e;"/><path d="M47.022,54.688c1.41,2.302 3.245,3.994 6.489,3.994c2.726,0 4.467,-1.362 4.467,-3.244c-0,-2.256 -1.789,-3.055 -4.789,-4.367l-1.645,-0.705c-4.746,-2.023 -7.9,-4.556 -7.9,-9.912c0,-4.933 3.759,-8.688 9.634,-8.688c4.182,-0 7.189,1.455 9.355,5.266l-5.122,3.289c-1.128,-2.022 -2.344,-2.819 -4.233,-2.819c-1.927,0 -3.148,1.222 -3.148,2.819c0,1.973 1.222,2.772 4.044,3.995l1.645,0.704c5.589,2.397 8.744,4.84 8.744,10.333c0,5.923 -4.652,9.167 -10.9,9.167c-6.109,0 -10.055,-2.911 -11.986,-6.727l5.345,-3.105Zm-23.236,0.57c1.033,1.833 1.973,3.383 4.233,3.383c2.161,0 3.524,-0.845 3.524,-4.133l0,-22.367l6.578,0l0,22.456c0,6.811 -3.993,9.911 -9.822,9.911c-5.267,-0 -8.317,-2.726 -9.868,-6.009l5.355,-3.241Z" style="fill-rule:nonzero;"/><g id="js.svg"></g></svg>