<?xml version="1.0" encoding="UTF-8" standalone="no"?><!DOCTYPE svg PUBLIC "-//W3C//DTD SVG 1.1//EN" "http://www.w3.org/Graphics/SVG/1.1/DTD/svg11.dtd"><svg width="100%" height="100%" viewBox="0 0 512 512" version="1.1" xmlns="http://www.w3.org/2000/svg" xmlns:xlink="http://www.w3.org/1999/xlink" xml:space="preserve" xmlns:serif="http://www.serif.com/" style="fill-rule:evenodd;clip-rule:evenodd;stroke-linejoin:round;stroke-miterlimit:2;"><clipPath id="_clip1"><rect id="node.svg" x="-0" y="164.383" width="681.839" height="183.502"/></clipPath><g clip-path="url(#_clip1)"><g id="g10"><g id="g12"><g id="g14"><g id="g16"><clipPath id="_clip2"><rect x="-0" y="164.382" width="681.858" height="183.502"/></clipPath><g clip-path="url(#_clip2)"><path id="path22" d="M102.243,261.901c-0,-1.982 -1.042,-3.804 -2.754,-4.787l-45.614,-26.252c-0.772,-0.453 -1.637,-0.688 -2.513,-0.724l-0.471,0c-0.871,0.036 -1.737,0.271 -2.518,0.724l-45.615,26.252c-1.701,0.983 -2.758,2.805 -2.758,4.787l0.1,70.687c0,0.983 0.51,1.898 1.375,2.38c0.847,0.507 1.893,0.507 2.738,-0l27.107,-15.523c1.715,-1.018 2.76,-2.815 2.76,-4.78l-0,-33.025c-0,-1.969 1.043,-3.791 2.751,-4.77l11.542,-6.648c0.86,-0.497 1.8,-0.74 2.761,-0.74c0.94,0 1.904,0.243 2.741,0.74l11.539,6.648c1.708,0.979 2.755,2.801 2.755,4.77l0,33.025c0,1.965 1.058,3.773 2.761,4.78l27.102,15.523c0.85,0.507 1.91,0.507 2.753,-0c0.841,-0.482 1.369,-1.397 1.369,-2.38l0.089,-70.687" style="fill:#fff;"/><path id="path24" d="M341.582,298.707c0,0.492 -0.263,0.948 -0.69,1.192l-15.667,9.032c-0.425,0.244 -0.95,0.244 -1.376,-0l-15.668,-9.032c-0.426,-0.244 -0.689,-0.7 -0.689,-1.192l0,-18.091c0,-0.491 0.263,-0.946 0.688,-1.194l15.668,-9.048c0.427,-0.248 0.952,-0.248 1.379,-0l15.668,9.048c0.424,0.248 0.687,0.703 0.687,1.194l0,18.091Zm4.233,-133.976c-0.853,-0.476 -1.895,-0.464 -2.738,0.03c-0.842,0.494 -1.359,1.399 -1.359,2.375l-0,70.004c-0,0.687 -0.369,1.325 -0.963,1.669c-0.596,0.346 -1.332,0.346 -1.929,0l-11.426,-6.582c-1.703,-0.982 -3.801,-0.98 -5.504,0.001l-45.634,26.336c-1.706,0.985 -2.755,2.803 -2.755,4.772l0,52.681c0,1.968 1.049,3.787 2.754,4.773l45.631,26.354c1.706,0.985 3.806,0.985 5.513,0l45.638,-26.354c1.705,-0.986 2.755,-2.805 2.755,-4.773l0,-131.321c0,-1.998 -1.083,-3.838 -2.828,-4.813l-27.155,-15.152" style="fill:#fff;"/><path id="path26" d="M509.075,280.143c1.697,-0.986 2.74,-2.801 2.74,-4.765l-0,-12.765c-0,-1.964 -1.043,-3.78 -2.744,-4.766l-45.338,-26.326c-1.708,-0.99 -3.812,-0.992 -5.524,-0.007l-45.615,26.336c-1.705,0.984 -2.755,2.802 -2.755,4.771l-0,52.667c-0,1.981 1.064,3.809 2.784,4.788l45.334,25.831c1.672,0.954 3.72,0.964 5.403,0.03l27.419,-15.241c0.871,-0.483 1.412,-1.396 1.416,-2.389c0.007,-0.993 -0.523,-1.914 -1.383,-2.408l-45.904,-26.349c-0.86,-0.49 -1.387,-1.403 -1.387,-2.389l0,-16.505c0,-0.985 0.527,-1.895 1.379,-2.387l14.29,-8.237c0.848,-0.491 1.898,-0.491 2.751,0l14.293,8.237c0.852,0.492 1.379,1.402 1.379,2.387l0,12.985c0,0.986 0.527,1.898 1.379,2.39c0.856,0.493 1.906,0.488 2.759,-0.006l27.324,-15.882" style="fill:#fff;"/><path id="path28" d="M185.222,231.238c1.703,-0.984 3.803,-0.984 5.507,0l45.628,26.33c1.706,0.984 2.756,2.802 2.756,4.773l0,52.7c0,1.969 -1.05,3.787 -2.754,4.773l-45.627,26.351c-1.707,0.985 -3.807,0.985 -5.513,0l-45.616,-26.351c-1.706,-0.986 -2.756,-2.804 -2.756,-4.773l0,-52.703c0,-1.968 1.05,-3.786 2.757,-4.77l45.618,-26.33" style="fill:#83cd29;"/><path id="path38" d="M460.298,277.676c0.329,-0.19 0.732,-0.19 1.057,0l8.758,5.052c0.326,0.188 0.527,0.537 0.527,0.916l0,10.11c0,0.379 -0.201,0.727 -0.527,0.916l-8.758,5.052c-0.325,0.19 -0.728,0.19 -1.057,-0l-8.747,-5.052c-0.329,-0.189 -0.53,-0.537 -0.53,-0.916l-0,-10.11c-0,-0.379 0.201,-0.728 0.53,-0.916l8.747,-5.052" style="fill:#83cd29;"/></g></g></g></g></g></g><g id="node.svg1" serif:id="node.svg"></g></svg>