<?xml version="1.0" encoding="UTF-8" standalone="no"?><!DOCTYPE svg PUBLIC "-//W3C//DTD SVG 1.1//EN" "http://www.w3.org/Graphics/SVG/1.1/DTD/svg11.dtd"><svg width="100%" height="100%" viewBox="0 0 512 512" version="1.1" xmlns="http://www.w3.org/2000/svg" xmlns:xlink="http://www.w3.org/1999/xlink" xml:space="preserve" xmlns:serif="http://www.serif.com/" style="fill-rule:evenodd;clip-rule:evenodd;stroke-linejoin:round;stroke-miterlimit:2;"><clipPath id="_clip1"><rect id="vs.svg" x="0" y="0" width="512" height="510.038"/></clipPath><g clip-path="url(#_clip1)"><path id="path951" d="M383.46,-0.011l-0,438.049l-382.487,-56.808l382.487,128.793l127.509,-53.042l0,-396.042l0.042,-0.019l-0.042,-0.085l0,-7.801l-127.509,-53.045Z" style="fill:#007acc;"/><path id="path887" d="M249.609,74.617l-117.153,115.804l-70.533,-53.118l-29.069,9.708l71.759,70.935l-71.759,70.931l29.069,9.713l70.533,-53.123l0.004,0l117.145,115.797l70.165,-29.812l0,-227.023l-70.161,-29.812Zm-0.004,82.628l0,121.387l-80.597,-60.693l80.597,-60.694Z" style="fill:#007acc;"/></g><g id="vs.svg1" serif:id="vs.svg"></g></svg>